# xmcd CD database file generated by OrangeCD 5.0
#
# Track frame offsets:
#	150
#	29218
#	46571
#	66700
#	96820
#	115291
#	143891
#	163623
#	188045
#	218477
#	238580
#	278785
#
# Disc length: 4221 seconds
#
# Revision: 0
# Processed by: cddbd v1.4PL0 Copyright (c) Steve Scherf et al.
# Submitted via: OrangeCD 5.0
#
DISCID=ae107b0c
DTITLE=The Cate Brothers Band - Live
DYEAR=1998
DGENRE=Blues
TTITLE0=Time Is A Thief
TTITLE1=Careless Road
TTITLE2=Are You Happy Now
TTITLE3=In One Eye And Out The Other
TTITLE4=You Can't Change My Heart
TTITLE5=Where Can We Go
TTITLE6=Baby Wants Inside
TTITLE7=Give It To A Good Man
TTITLE8=Union Man
TTITLE9=I'm On Your Side
TTITLE10=Steamy Windows
TTITLE11=All Along The Watchtower
EXTD=
EXTT0=
EXTT1=
EXTT2=
EXTT3=
EXTT4=
EXTT5=
EXTT6=
EXTT7=
EXTT8=
EXTT9=
EXTT10=
EXTT11=
PLAYORDER=
